SmallCaps Black Italic Display 1292.ufo
<glyph name="a.sc" format="1">
  <advance width="1180"/>
  <outline>
    <contour>
      <point x="666" y="1292" type="move" name="top"/>
    </contour>
    <contour>
      <point x="975" y="18" type="move" name="ogonek"/>
    </contour>
    <contour>
      <point x="453" y="0" type="move" name="bottom"/>
    </contour>
    <contour>
      <point x="-93" y="39" type="line"/>
      <point x="-99" y="0" type="line"/>
      <point x="316" y="0" type="line"/>
      <point x="322" y="39" type="line"/>
      <point x="139" y="94" type="line"/>
      <point x="492" y="996" type="line"/>
      <point x="574" y="1213" type="line"/>
      <point x="521" y="1177" type="line"/>
      <point x="553" y="934" type="line"/>
      <point x="696" y="69" type="line"/>
      <point x="559" y="39" type="line"/>
      <point x="555" y="0" type="line"/>
      <point x="1169" y="0" type="line"/>
      <point x="1175" y="39" type="line"/>
      <point x="1069" y="69" type="line"/>
      <point x="853" y="1295" type="line"/>
      <point x="554" y="1293" type="line"/>
      <point x="44" y="98" type="line"/>
    </contour>
    <contour>
      <point x="229" y="437" type="line"/>
      <point x="208" y="366" type="line"/>
      <point x="767" y="366" type="line"/>
      <point x="767" y="437" type="line"/>
    </contour>
  </outline>
</glyph>
<glyph name="b.sc" format="1">
  <advance width="1218"/>
  <outline>
    <contour>
      <point x="700" y="1292" type="move" name="top"/>
    </contour>
    <contour>
      <point x="500" y="0" type="move" name="bottom"/>
    </contour>
    <contour>
      <point x="596" y="-18" type="curve"/>
      <point x="928" y="-18"/>
      <point x="1166" y="100"/>
      <point x="1169" y="389" type="curve"/>
      <point x="1171" y="558"/>
      <point x="1067" y="677"/>
      <point x="844" y="677" type="curve"/>
      <point x="1066" y="710"/>
      <point x="1172" y="843"/>
      <point x="1174" y="1022" type="curve"/>
      <point x="1176" y="1190"/>
      <point x="1064" y="1306"/>
      <point x="734" y="1306" type="curve"/>
      <point x="592" y="1306"/>
      <point x="529" y="1292"/>
      <point x="422" y="1292" type="curve"/>
      <point x="133" y="1292" type="line"/>
      <point x="128" y="1253" type="line"/>
      <point x="235" y="1217" type="line"/>
      <point x="78" y="75" type="line"/>
      <point x="-39" y="39" type="line"/>
      <point x="-43" y="0" type="line"/>
      <point x="242" y="0" type="line" smooth="yes"/>
      <point x="365" y="0"/>
      <point x="405" y="-18"/>
    </contour>
    <contour>
      <point x="335" y="105" type="curve"/>
      <point x="429" y="8" type="line"/>
      <point x="605" y="1285" type="line"/>
      <point x="475" y="1152" type="line"/>
      <point x="581" y="1243"/>
      <point x="606" y="1246"/>
      <point x="657" y="1246" type="curve"/>
      <point x="762" y="1246"/>
      <point x="835" y="1168"/>
      <point x="833" y="1031" type="curve"/>
      <point x="831" y="808"/>
      <point x="716" y="700"/>
      <point x="593" y="698" type="curve"/>
      <point x="537" y="696"/>
      <point x="516" y="696"/>
      <point x="516" y="698" type="curve"/>
      <point x="507" y="631" type="line"/>
      <point x="525" y="633"/>
      <point x="556" y="635"/>
      <point x="578" y="635" type="curve"/>
      <point x="703" y="635"/>
      <point x="798" y="571"/>
      <point x="799" y="393" type="curve"/>
      <point x="798" y="180"/>
      <point x="709" y="42"/>
      <point x="562" y="42" type="curve"/>
      <point x="488" y="42"/>
      <point x="444" y="59"/>
    </contour>
  </outline>
</glyph>
<glyph name="c.sc" format="1">
  <advance width="1158"/>
  <outline>
    <contour>
      <point x="915" y="1292" type="move" name="top"/>
    </contour>
    <contour>
      <point x="675" y="0" type="move" name="bottom"/>
    </contour>
    <contour>
      <point x="579" y="-21" type="curve"/>
      <point x="814" y="-21"/>
      <point x="924" y="51"/>
      <point x="1008" y="48" type="curve"/>
      <point x="1085" y="411" type="line"/>
      <point x="907" y="411" type="line"/>
      <point x="889" y="346"/>
      <point x="816" y="151"/>
      <point x="792" y="118" type="curve"/>
      <point x="765" y="70"/>
      <point x="689" y="38"/>
      <point x="616" y="38" type="curve"/>
      <point x="456" y="38"/>
      <point x="418" y="315"/>
      <point x="420" y="463" type="curve"/>
      <point x="424" y="890"/>
      <point x="538" y="1251"/>
      <point x="765" y="1251" type="curve"/>
      <point x="802" y="1251"/>
      <point x="842" y="1238"/>
      <point x="872" y="1222" type="curve"/>
      <point x="896" y="865" type="line"/>
      <point x="1111" y="865" type="line"/>
      <point x="1173" y="1261" type="line"/>
      <point x="1048" y="1261"/>
      <point x="981" y="1310"/>
      <point x="751" y="1310" type="curve"/>
      <point x="265" y="1310"/>
      <point x="56" y="899"/>
      <point x="52" y="515" type="curve"/>
      <point x="49" y="248"/>
      <point x="163" y="-21"/>
    </contour>
  </outline>
</glyph>
<glyph name="d.sc" format="1">
  <advance width="1331"/>
  <outline>
    <contour>
      <point x="752" y="1292" type="move" name="top"/>
    </contour>
    <contour>
      <point x="539" y="0" type="move" name="bottom"/>
    </contour>
    <contour>
      <point x="560" y="-21" type="curve"/>
      <point x="1080" y="-21"/>
      <point x="1315" y="329"/>
      <point x="1313" y="805" type="curve"/>
      <point x="1312" y="1057"/>
      <point x="1197" y="1306"/>
      <point x="796" y="1306" type="curve"/>
      <point x="686" y="1306"/>
      <point x="561" y="1292"/>
      <point x="423" y="1292" type="curve"/>
      <point x="133" y="1292" type="line"/>
      <point x="128" y="1253" type="line"/>
      <point x="235" y="1217" type="line"/>
      <point x="78" y="75" type="line"/>
      <point x="-39" y="39" type="line"/>
      <point x="-44" y="0" type="line"/>
      <point x="240" y="0" type="line" smooth="yes"/>
      <point x="344" y="0"/>
      <point x="463" y="-21"/>
    </contour>
    <contour>
      <point x="558" y="36" type="curve"/>
      <point x="444" y="36"/>
      <point x="456" y="69"/>
      <point x="345" y="67" type="curve"/>
      <point x="435" y="-3" type="line"/>
      <point x="613" y="1269" type="line"/>
      <point x="611" y="1269"/>
      <point x="572" y="1207"/>
      <point x="569" y="1207" type="curve"/>
      <point x="585" y="1226"/>
      <point x="618" y="1253"/>
      <point x="695" y="1264" type="curve"/>
      <point x="888" y="1276"/>
      <point x="945" y="1125"/>
      <point x="957" y="850" type="curve"/>
      <point x="963" y="524"/>
      <point x="900" y="37"/>
    </contour>
  </outline>
</glyph>
<glyph name="e.sc" format="1">
  <advance width="1142"/>
  <outline>
    <contour>
      <point x="126" y="1292" type="move" name="topleft"/>
    </contour>
    <contour>
      <point x="683" y="1292" type="move" name="top"/>
    </contour>
    <contour>
      <point x="988" y="18" type="move" name="ogonek"/>
    </contour>
    <contour>
      <point x="544" y="0" type="move" name="bottom"/>
    </contour>
    <contour>
      <point x="-39" y="39" type="line"/>
      <point x="-43" y="0" type="line"/>
      <point x="995" y="0" type="line"/>
      <point x="1081" y="414" type="line"/>
      <point x="915" y="432" type="line"/>
      <point x="763" y="81" type="line"/>
      <point x="451" y="55" type="line"/>
      <point x="530" y="625" type="line"/>
      <point x="910" y="614" type="line"/>
      <point x="929" y="721" type="line"/>
      <point x="539" y="693" type="line"/>
      <point x="613" y="1236" type="line"/>
      <point x="894" y="1205" type="line"/>
      <point x="966" y="944" type="line"/>
      <point x="1108" y="944" type="line"/>
      <point x="1128" y="1292" type="line"/>
      <point x="133" y="1292" type="line"/>
      <point x="128" y="1253" type="line"/>
      <point x="235" y="1217" type="line"/>
      <point x="78" y="75" type="line"/>
    </contour>
  </outline>
</glyph>
<glyph name="f.sc" format="1">
  <advance width="1075"/>
  <outline>
    <contour>
      <point x="601" y="-143" type="move" name="btm"/>
    </contour>
    <contour>
      <point x="688" y="1292" type="move" name="top"/>
    </contour>
    <contour>
      <point x="-39" y="39" type="line"/>
      <point x="-43" y="0" type="line"/>
      <point x="730" y="0" type="line"/>
      <point x="736" y="43" type="line"/>
      <point x="457" y="95" type="line"/>
      <point x="530" y="625" type="line"/>
      <point x="910" y="614" type="line"/>
      <point x="930" y="721" type="line"/>
      <point x="539" y="693" type="line"/>
      <point x="613" y="1236" type="line"/>
      <point x="895" y="1205" type="line"/>
      <point x="967" y="944" type="line"/>
      <point x="1108" y="944" type="line"/>
      <point x="1128" y="1292" type="line"/>
      <point x="133" y="1292" type="line"/>
      <point x="128" y="1253" type="line"/>
      <point x="235" y="1217" type="line"/>
      <point x="78" y="75" type="line"/>
    </contour>
  </outline>
</glyph>
<glyph name="g.sc" format="1">
  <advance width="1255"/>
  <outline>
    <contour>
      <point x="823" y="1292" type="move" name="top"/>
    </contour>
    <contour>
      <point x="607" y="0" type="move" name="bottom"/>
    </contour>
    <contour>
      <point x="624" y="-21" type="curve"/>
      <point x="780" y="-21"/>
      <point x="886" y="14"/>
      <point x="991" y="36" type="curve"/>
      <point x="1036" y="46"/>
      <point x="1091" y="61"/>
      <point x="1138" y="60" type="curve"/>
      <point x="1216" y="633" type="line"/>
      <point x="725" y="633" type="line"/>
      <point x="721" y="594" type="line"/>
      <point x="858" y="555" type="line"/>
      <point x="791" y="67" type="line"/>
      <point x="749" y="47"/>
      <point x="700" y="34"/>
      <point x="641" y="34" type="curve"/>
      <point x="467" y="34"/>
      <point x="433" y="201"/>
      <point x="436" y="507" type="curve"/>
      <point x="440" y="933"/>
      <point x="545" y="1259"/>
      <point x="793" y="1259" type="curve"/>
      <point x="867" y="1259"/>
      <point x="932" y="1230"/>
      <point x="943" y="1211" type="curve"/>
      <point x="979" y="941" type="line"/>
      <point x="1204" y="941" type="line"/>
      <point x="1255" y="1261" type="line"/>
      <point x="1219" y="1261"/>
      <point x="1188" y="1266"/>
      <point x="1159" y="1271" type="curve"/>
      <point x="1081" y="1286"/>
      <point x="1005" y="1310"/>
      <point x="799" y="1310" type="curve"/>
      <point x="256" y="1310"/>
      <point x="59" y="936"/>
      <point x="55" y="533" type="curve"/>
      <point x="52" y="262"/>
      <point x="155" y="-21"/>
    </contour>
  </outline>
</glyph>
<glyph name="h.sc" format="1">
  <advance width="1416"/>
  <outline>
    <contour>
      <point x="834" y="1292" type="move" name="top"/>
    </contour>
    <contour>
      <point x="658" y="0" type="move" name="bottom"/>
    </contour>
    <contour>
      <point x="702" y="39" type="line"/>
      <point x="698" y="0" type="line"/>
      <point x="1318" y="0" type="line"/>
      <point x="1324" y="39" type="line"/>
      <point x="1216" y="75" type="line"/>
      <point x="1373" y="1217" type="line"/>
      <point x="1490" y="1253" type="line"/>
      <point x="1495" y="1292" type="line"/>
      <point x="884" y="1292" type="line"/>
      <point x="879" y="1253" type="line"/>
      <point x="999" y="1217" type="line"/>
      <point x="842" y="75" type="line"/>
    </contour>
    <contour>
      <point x="-39" y="39" type="line"/>
      <point x="-43" y="0" type="line"/>
      <point x="567" y="0" type="line"/>
      <point x="572" y="39" type="line"/>
      <point x="453" y="75" type="line"/>
      <point x="609" y="1217" type="line"/>
      <point x="749" y="1253" type="line"/>
      <point x="754" y="1292" type="line"/>
      <point x="133" y="1292" type="line"/>
      <point x="128" y="1253" type="line"/>
      <point x="235" y="1217" type="line"/>
      <point x="78" y="75" type="line"/>
    </contour>
    <contour>
      <point x="438" y="709" type="line"/>
      <point x="438" y="637" type="line"/>
      <point x="1033" y="637" type="line"/>
      <point x="1032" y="709" type="line"/>
    </contour>
  </outline>
</glyph>
<glyph name="i.sc" format="1">
  <advance width="704"/>
  <outline>
    <contour>
      <point x="-24" y="39" type="line"/>
      <point x="-28" y="0" type="line"/>
      <point x="582" y="0" type="line"/>
      <point x="588" y="39" type="line"/>
      <point x="467" y="75" type="line"/>
      <point x="624" y="1217" type="line"/>
      <point x="764" y="1253" type="line"/>
      <point x="769" y="1292" type="line"/>
      <point x="148" y="1292" type="line"/>
      <point x="143" y="1253" type="line"/>
      <point x="250" y="1217" type="line"/>
      <point x="93" y="75" type="line"/>
    </contour>
  </outline>
</glyph>
<glyph name="j.sc" format="1">
  <advance width="655"/>
  <outline>
    <contour>
      <point x="267" y="-143" type="move" name="btm"/>
    </contour>
    <contour>
      <point x="473" y="1292" type="move" name="top"/>
    </contour>
    <contour>
      <point x="-134" y="-227" type="curve"/>
      <point x="-105" y="-280" type="line"/>
      <point x="264" y="-223"/>
      <point x="419" y="-56"/>
      <point x="471" y="129" type="curve"/>
      <point x="535" y="362"/>
      <point x="569" y="690"/>
      <point x="623" y="1222" type="curve"/>
      <point x="747" y="1253" type="line"/>
      <point x="751" y="1292" type="line"/>
      <point x="130" y="1292" type="line"/>
      <point x="125" y="1253" type="line"/>
      <point x="258" y="1211" type="line"/>
      <point x="226" y="842"/>
      <point x="177" y="463"/>
      <point x="124" y="133" type="curve"/>
      <point x="98" y="-22"/>
      <point x="33" y="-171"/>
    </contour>
  </outline>
</glyph>
<glyph name="l.sc" format="1">
  <advance width="1116"/>
  <outline>
    <contour>
      <point x="791" y="965" type="move" name="car"/>
    </contour>
    <contour>
      <point x="481" y="1292" type="move" name="top"/>
    </contour>
    <contour>
      <point x="554" y="0" type="move" name="bottom"/>
    </contour>
    <contour>
      <point x="-39" y="39" type="line"/>
      <point x="-43" y="0" type="line"/>
      <point x="983" y="0" type="line"/>
      <point x="1083" y="457" type="line"/>
      <point x="917" y="475" type="line"/>
      <point x="746" y="81" type="line"/>
      <point x="450" y="57" type="line"/>
      <point x="609" y="1217" type="line"/>
      <point x="749" y="1253" type="line"/>
      <point x="753" y="1292" type="line"/>
      <point x="133" y="1292" type="line"/>
      <point x="128" y="1253" type="line"/>
      <point x="235" y="1217" type="line"/>
      <point x="78" y="75" type="line"/>
    </contour>
  </outline>
</glyph>
<glyph name="m.sc" format="1">
  <advance width="1721"/>
  <outline>
    <contour>
      <point x="962" y="1292" type="move" name="top"/>
    </contour>
    <contour>
      <point x="729" y="0" type="move" name="bottom"/>
    </contour>
    <contour>
      <point x="-81" y="39" type="line"/>
      <point x="-86" y="0" type="line"/>
      <point x="308" y="0" type="line"/>
      <point x="313" y="39" type="line"/>
      <point x="150" y="99" type="line"/>
      <point x="338" y="910" type="line"/>
      <point x="400" y="1182" type="line"/>
      <point x="411" y="913" type="line"/>
      <point x="494" y="0" type="line"/>
      <point x="810" y="0" type="line"/>
      <point x="1115" y="911" type="line"/>
      <point x="1200" y="1178" type="line"/>
      <point x="1190" y="914" type="line"/>
      <point x="1144" y="69" type="line"/>
      <point x="1001" y="39" type="line"/>
      <point x="997" y="0" type="line"/>
      <point x="1650" y="0" type="line"/>
      <point x="1654" y="39" type="line"/>
      <point x="1516" y="71" type="line"/>
      <point x="1561" y="1218" type="line"/>
      <point x="1707" y="1253" type="line"/>
      <point x="1713" y="1292" type="line"/>
      <point x="1167" y="1292" type="line"/>
      <point x="890" y="463" type="line"/>
      <point x="811" y="206" type="line"/>
      <point x="795" y="463" type="line"/>
      <point x="725" y="1292" type="line"/>
      <point x="197" y="1292" type="line"/>
      <point x="192" y="1253" type="line"/>
      <point x="348" y="1219" type="line"/>
      <point x="61" y="99" type="line"/>
    </contour>
  </outline>
</glyph>
<glyph name="n.sc" format="1">
  <advance width="1251"/>
  <outline>
    <contour>
      <point x="930" y="1292" type="move" name="top"/>
    </contour>
    <contour>
      <point x="744" y="0" type="move" name="bottom"/>
    </contour>
    <contour>
      <point x="-40" y="39" type="line"/>
      <point x="-46" y="0" type="line"/>
      <point x="381" y="0" type="line"/>
      <point x="386" y="39" type="line"/>
      <point x="179" y="94" type="line"/>
      <point x="317" y="1256" type="line"/>
      <point x="261" y="1248" type="line"/>
      <point x="368" y="984" type="line"/>
      <point x="802" y="0" type="line"/>
      <point x="1034" y="0" type="line"/>
      <point x="1205" y="1198" type="line"/>
      <point x="1338" y="1253" type="line"/>
      <point x="1344" y="1292" type="line"/>
      <point x="917" y="1292" type="line"/>
      <point x="912" y="1253" type="line"/>
      <point x="1119" y="1198" type="line"/>
      <point x="989" y="34" type="line"/>
      <point x="1044" y="271" type="line"/>
      <point x="938" y="537" type="line"/>
      <point x="605" y="1292" type="line"/>
      <point x="135" y="1292" type="line"/>
      <point x="129" y="1253" type="line"/>
      <point x="262" y="1213" type="line"/>
      <point x="93" y="94" type="line"/>
    </contour>
  </outline>
</glyph>
<glyph name="o.sc" format="1">
  <advance width="1311"/>
  <outline>
    <contour>
      <point x="156" y="1292" type="move" name="topleft"/>
    </contour>
    <contour>
      <point x="690" y="648" type="move" name="center"/>
    </contour>
    <contour>
      <point x="601" y="0" type="move" name="bottom"/>
    </contour>
    <contour>
      <point x="774" y="1292" type="move" name="top"/>
    </contour>
    <contour>
      <point x="1133" y="1292" type="move" name="topright"/>
    </contour>
    <contour>
      <point x="761" y="27" type="move" name="ogonek"/>
    </contour>
    <contour>
      <point x="583" y="-22" type="curve"/>
      <point x="1079" y="-22"/>
      <point x="1290" y="408"/>
      <point x="1294" y="771" type="curve"/>
      <point x="1296" y="1009"/>
      <point x="1200" y="1310"/>
      <point x="762" y="1310" type="curve"/>
      <point x="267" y="1310"/>
      <point x="56" y="880"/>
      <point x="52" y="517" type="curve"/>
      <point x="49" y="278"/>
      <point x="146" y="-22"/>
    </contour>
    <contour>
      <point x="602" y="39" type="curve"/>
      <point x="471" y="39"/>
      <point x="422" y="207"/>
      <point x="425" y="438" type="curve"/>
      <point x="429" y="855"/>
      <point x="541" y="1249"/>
      <point x="744" y="1249" type="curve"/>
      <point x="874" y="1249"/>
      <point x="923" y="1080"/>
      <point x="921" y="850" type="curve"/>
      <point x="916" y="433"/>
      <point x="804" y="39"/>
    </contour>
  </outline>
</glyph>
<glyph name="p.sc" format="1">
  <advance width="1168"/>
  <outline>
    <contour>
      <point x="282" y="-144" type="move" name="btm"/>
    </contour>
    <contour>
      <point x="756" y="1292" type="move" name="top"/>
    </contour>
    <contour>
      <point x="-39" y="39" type="line"/>
      <point x="-43" y="0" type="line"/>
      <point x="724" y="0" type="line"/>
      <point x="730" y="43" type="line"/>
      <point x="451" y="95" type="line"/>
      <point x="610" y="1266" type="line"/>
      <point x="593" y="1233" type="line"/>
      <point x="618" y="1242"/>
      <point x="630" y="1248"/>
      <point x="678" y="1248" type="curve"/>
      <point x="797" y="1248"/>
      <point x="834" y="1128"/>
      <point x="833" y="972" type="curve"/>
      <point x="831" y="805"/>
      <point x="764" y="504"/>
      <point x="561" y="504" type="curve"/>
      <point x="542" y="504"/>
      <point x="516" y="506"/>
      <point x="469" y="518" type="curve"/>
      <point x="463" y="450" type="line"/>
      <point x="504" y="441"/>
      <point x="570" y="438"/>
      <point x="619" y="438" type="curve"/>
      <point x="1128" y="438"/>
      <point x="1197" y="777"/>
      <point x="1199" y="938" type="curve"/>
      <point x="1201" y="1157"/>
      <point x="1058" y="1303"/>
      <point x="756" y="1301" type="curve"/>
      <point x="607" y="1300"/>
      <point x="495" y="1292"/>
      <point x="414" y="1292" type="curve"/>
      <point x="133" y="1292" type="line"/>
      <point x="128" y="1253" type="line"/>
      <point x="235" y="1217" type="line"/>
      <point x="78" y="75" type="line"/>
    </contour>
  </outline>
</glyph>
<glyph name="q.sc" format="1">
  <advance width="1311"/>
  <outline>
    <contour>
      <point x="888" y="-423" type="curve"/>
      <point x="1066" y="-423"/>
      <point x="1170" y="-382"/>
      <point x="1221" y="-342" type="curve"/>
      <point x="1220" y="-126" type="line"/>
      <point x="1140" y="-153"/>
      <point x="1045" y="-161"/>
      <point x="983" y="-161" type="curve"/>
      <point x="818" y="-161"/>
      <point x="697" y="-152"/>
      <point x="699" y="-2" type="curve"/>
      <point x="652" y="3" type="line"/>
      <point x="608" y="-68"/>
      <point x="587" y="-135"/>
      <point x="586" y="-194" type="curve"/>
      <point x="585" y="-331"/>
      <point x="699" y="-423"/>
    </contour>
    <contour>
      <point x="583" y="-22" type="curve"/>
      <point x="1079" y="-22"/>
      <point x="1290" y="408"/>
      <point x="1294" y="771" type="curve"/>
      <point x="1296" y="1009"/>
      <point x="1200" y="1310"/>
      <point x="762" y="1310" type="curve"/>
      <point x="267" y="1310"/>
      <point x="56" y="880"/>
      <point x="52" y="517" type="curve"/>
      <point x="49" y="278"/>
      <point x="146" y="-22"/>
    </contour>
    <contour>
      <point x="602" y="39" type="curve"/>
      <point x="471" y="39"/>
      <point x="422" y="207"/>
      <point x="425" y="438" type="curve"/>
      <point x="429" y="855"/>
      <point x="541" y="1249"/>
      <point x="744" y="1249" type="curve"/>
      <point x="874" y="1249"/>
      <point x="923" y="1080"/>
      <point x="921" y="850" type="curve"/>
      <point x="916" y="433"/>
      <point x="804" y="39"/>
    </contour>
  </outline>
</glyph>
<glyph name="r.sc" format="1">
  <advance width="1274"/>
  <outline>
    <contour>
      <point x="663" y="1292" type="move" name="top"/>
    </contour>
    <contour>
      <point x="619" y="0" type="move" name="bottom"/>
    </contour>
    <contour>
      <point x="-39" y="39" type="line"/>
      <point x="-43" y="0" type="line"/>
      <point x="557" y="0" type="line"/>
      <point x="562" y="39" type="line"/>
      <point x="444" y="74" type="line"/>
      <point x="610" y="1277" type="line"/>
      <point x="583" y="1228" type="line"/>
      <point x="602" y="1238"/>
      <point x="628" y="1246"/>
      <point x="665" y="1246" type="curve"/>
      <point x="799" y="1246"/>
      <point x="844" y="1123"/>
      <point x="842" y="968" type="curve"/>
      <point x="840" y="776"/>
      <point x="759" y="584"/>
      <point x="581" y="609" type="curve"/>
      <point x="541" y="615"/>
      <point x="521" y="614"/>
      <point x="498" y="620" type="curve"/>
      <point x="489" y="545" type="line"/>
      <point x="531" y="545"/>
      <point x="555" y="545"/>
      <point x="632" y="545" type="curve"/>
      <point x="669" y="501"/>
      <point x="705" y="368"/>
      <point x="737" y="241" type="curve"/>
      <point x="766" y="131"/>
      <point x="813" y="0"/>
      <point x="858" y="0" type="curve"/>
      <point x="1255" y="0" type="line"/>
      <point x="1260" y="36" type="line"/>
      <point x="1187" y="50"/>
      <point x="1151" y="174"/>
      <point x="1111" y="286" type="curve"/>
      <point x="1050" y="453"/>
      <point x="980" y="597"/>
      <point x="767" y="615" type="curve"/>
      <point x="724" y="556" type="line"/>
      <point x="1062" y="589"/>
      <point x="1199" y="781"/>
      <point x="1201" y="966" type="curve"/>
      <point x="1203" y="1167"/>
      <point x="1095" y="1303"/>
      <point x="724" y="1303" type="curve"/>
      <point x="606" y="1303"/>
      <point x="524" y="1292"/>
      <point x="402" y="1292" type="curve"/>
      <point x="133" y="1292" type="line"/>
      <point x="128" y="1253" type="line"/>
      <point x="235" y="1217" type="line"/>
      <point x="78" y="75" type="line"/>
    </contour>
  </outline>
</glyph>
<glyph name="s.sc" format="1">
  <advance width="977"/>
  <outline>
    <contour>
      <point x="608" y="1292" type="move" name="top"/>
    </contour>
    <contour>
      <point x="408" y="0" type="move" name="bottom"/>
    </contour>
    <contour>
      <point x="414" y="-21" type="curve"/>
      <point x="740" y="-21"/>
      <point x="916" y="147"/>
      <point x="919" y="362" type="curve"/>
      <point x="920" y="529"/>
      <point x="834" y="635"/>
      <point x="691" y="738" type="curve"/>
      <point x="517" y="864"/>
      <point x="446" y="918"/>
      <point x="445" y="1045" type="curve"/>
      <point x="444" y="1170"/>
      <point x="498" y="1252"/>
      <point x="624" y="1252" type="curve"/>
      <point x="674" y="1252"/>
      <point x="707" y="1234"/>
      <point x="725" y="1216" type="curve"/>
      <point x="748" y="986" type="line"/>
      <point x="942" y="986" type="line"/>
      <point x="988" y="1246" type="line"/>
      <point x="914" y="1276"/>
      <point x="806" y="1308"/>
      <point x="643" y="1308" type="curve"/>
      <point x="389" y="1308"/>
      <point x="131" y="1185"/>
      <point x="131" y="893" type="curve"/>
      <point x="131" y="724"/>
      <point x="254" y="615"/>
      <point x="389" y="517" type="curve"/>
      <point x="561" y="391"/>
      <point x="591" y="322"/>
      <point x="590" y="224" type="curve"/>
      <point x="589" y="118"/>
      <point x="541" y="30"/>
      <point x="421" y="30" type="curve"/>
      <point x="343" y="30"/>
      <point x="296" y="78"/>
      <point x="273" y="111" type="curve"/>
      <point x="259" y="337" type="line"/>
      <point x="59" y="337" type="line"/>
      <point x="5" y="66" type="line"/>
      <point x="77" y="35"/>
      <point x="263" y="-21"/>
    </contour>
  </outline>
</glyph>
<glyph name="t.sc" format="1">
  <advance width="1259"/>
  <outline>
    <contour>
      <point x="737" y="1292" type="move" name="top"/>
    </contour>
    <contour>
      <point x="571" y="0" type="move" name="bottom"/>
    </contour>
    <contour>
      <point x="195" y="39" type="line"/>
      <point x="191" y="0" type="line"/>
      <point x="963" y="0" type="line"/>
      <point x="969" y="39" type="line"/>
      <point x="769" y="80" type="line"/>
      <point x="928" y="1236" type="line"/>
      <point x="1045" y="1230" type="line"/>
      <point x="1121" y="812" type="line"/>
      <point x="1268" y="812" type="line"/>
      <point x="1319" y="1292" type="line"/>
      <point x="166" y="1292" type="line"/>
      <point x="72" y="812" type="line"/>
      <point x="242" y="812" type="line"/>
      <point x="429" y="1230" type="line"/>
      <point x="554" y="1236" type="line"/>
      <point x="395" y="80" type="line"/>
    </contour>
  </outline>
</glyph>
<glyph name="u.sc" format="1">
  <advance width="1245"/>
  <outline>
    <contour>
      <point x="820" y="1292" type="move" name="top"/>
    </contour>
    <contour>
      <point x="846" y="18" type="move" name="ogonek"/>
    </contour>
    <contour>
      <point x="1388" y="1292" type="move" name="topright"/>
    </contour>
    <contour>
      <point x="631" y="0" type="move" name="bottom"/>
    </contour>
    <contour>
      <point x="607" y="-22" type="curve"/>
      <point x="1002" y="-22"/>
      <point x="1083" y="199"/>
      <point x="1133" y="527" type="curve"/>
      <point x="1239" y="1205" type="line"/>
      <point x="1342" y="1253" type="line"/>
      <point x="1347" y="1292" type="line"/>
      <point x="1006" y="1292" type="line"/>
      <point x="1000" y="1253" type="line"/>
      <point x="1156" y="1210" type="line"/>
      <point x="1065" y="528" type="line" smooth="yes"/>
      <point x="1028" y="253"/>
      <point x="951" y="91"/>
      <point x="711" y="91" type="curve"/>
      <point x="535" y="91"/>
      <point x="483" y="208"/>
      <point x="483" y="330" type="curve"/>
      <point x="482" y="391"/>
      <point x="489" y="458"/>
      <point x="499" y="528" type="curve"/>
      <point x="597" y="1215" type="line"/>
      <point x="749" y="1253" type="line"/>
      <point x="754" y="1292" type="line"/>
      <point x="136" y="1292" type="line"/>
      <point x="131" y="1252" type="line"/>
      <point x="229" y="1219" type="line"/>
      <point x="130" y="530" type="line" smooth="yes"/>
      <point x="123" y="477"/>
      <point x="120" y="430"/>
      <point x="121" y="386" type="curve"/>
      <point x="124" y="112"/>
      <point x="264" y="-22"/>
    </contour>
  </outline>
</glyph>
<glyph name="v.sc" format="1">
  <advance width="1185"/>
  <outline>
    <contour>
      <point x="893" y="1443" type="move" name="top"/>
    </contour>
    <contour>
      <point x="176" y="1223" type="line"/>
      <point x="382" y="0" type="line"/>
      <point x="681" y="0" type="line"/>
      <point x="1181" y="1194" type="line"/>
      <point x="1319" y="1253" type="line"/>
      <point x="1325" y="1292" type="line"/>
      <point x="909" y="1292" type="line"/>
      <point x="903" y="1253" type="line"/>
      <point x="1086" y="1197" type="line"/>
      <point x="731" y="294" type="line"/>
      <point x="650" y="80" type="line"/>
      <point x="714" y="116" type="line"/>
      <point x="682" y="357" type="line"/>
      <point x="549" y="1223" type="line"/>
      <point x="686" y="1253" type="line"/>
      <point x="690" y="1292" type="line"/>
      <point x="75" y="1292" type="line"/>
      <point x="70" y="1253" type="line"/>
    </contour>
  </outline>
</glyph>
<glyph name="w.sc" format="1">
  <advance width="1872"/>
  <outline>
    <contour>
      <point x="1655" y="1448" type="move" name="top"/>
    </contour>
    <contour>
      <point x="846" y="0" type="move" name="bottom"/>
    </contour>
    <contour>
      <point x="902" y="1223" type="line"/>
      <point x="1099" y="0" type="line"/>
      <point x="1398" y="0" type="line"/>
      <point x="1889" y="1194" type="line"/>
      <point x="2027" y="1253" type="line"/>
      <point x="2033" y="1292" type="line"/>
      <point x="1617" y="1292" type="line"/>
      <point x="1612" y="1253" type="line"/>
      <point x="1794" y="1197" type="line"/>
      <point x="1446" y="294" type="line"/>
      <point x="1367" y="80" type="line"/>
      <point x="1431" y="116" type="line"/>
      <point x="1399" y="355" type="line"/>
      <point x="1275" y="1223" type="line"/>
      <point x="1412" y="1253" type="line"/>
      <point x="1417" y="1292" type="line"/>
      <point x="802" y="1292" type="line"/>
      <point x="796" y="1253" type="line"/>
    </contour>
    <contour>
      <point x="176" y="1223" type="line"/>
      <point x="373" y="0" type="line"/>
      <point x="672" y="0" type="line"/>
      <point x="1165" y="1198" type="line"/>
      <point x="1071" y="1201" type="line"/>
      <point x="720" y="295" type="line"/>
      <point x="641" y="80" type="line"/>
      <point x="705" y="116" type="line"/>
      <point x="673" y="355" type="line"/>
      <point x="549" y="1223" type="line"/>
      <point x="686" y="1253" type="line"/>
      <point x="690" y="1292" type="line"/>
      <point x="75" y="1292" type="line"/>
      <point x="70" y="1253" type="line"/>
    </contour>
  </outline>
</glyph>
<glyph name="x.sc" format="1">
  <advance width="1312"/>
  <outline>
    <contour>
      <point x="858" y="1443" type="move" name="top"/>
    </contour>
    <contour>
      <point x="581" y="0" type="move" name="bottom"/>
    </contour>
    <contour>
      <point x="-70" y="39" type="line"/>
      <point x="-75" y="0" type="line"/>
      <point x="376" y="0" type="line"/>
      <point x="382" y="39" type="line"/>
      <point x="212" y="89" type="line"/>
      <point x="590" y="538" type="line"/>
      <point x="795" y="695" type="line"/>
      <point x="1258" y="1202" type="line"/>
      <point x="1413" y="1253" type="line"/>
      <point x="1418" y="1292" type="line"/>
      <point x="975" y="1292" type="line"/>
      <point x="969" y="1253" type="line"/>
      <point x="1147" y="1202" type="line"/>
      <point x="764" y="754" type="line"/>
      <point x="558" y="595" type="line"/>
      <point x="96" y="90" type="line"/>
    </contour>
    <contour>
      <point x="580" y="39" type="line"/>
      <point x="574" y="0" type="line"/>
      <point x="1251" y="0" type="line"/>
      <point x="1256" y="39" type="line"/>
      <point x="1125" y="81" type="line"/>
      <point x="820" y="754" type="line"/>
      <point x="816" y="766" type="line"/>
      <point x="645" y="1208" type="line"/>
      <point x="800" y="1254" type="line"/>
      <point x="805" y="1293" type="line"/>
      <point x="123" y="1293" type="line"/>
      <point x="118" y="1254" type="line"/>
      <point x="243" y="1208" type="line"/>
      <point x="532" y="560" type="line"/>
      <point x="539" y="544" type="line"/>
      <point x="729" y="82" type="line"/>
    </contour>
  </outline>
</glyph>
<glyph name="y.sc" format="1">
  <advance width="1107"/>
  <outline>
    <contour>
      <point x="452" y="-144" type="move" name="btm"/>
    </contour>
    <contour>
      <point x="87" y="1292" type="move" name="topleft"/>
    </contour>
    <contour>
      <point x="718" y="1292" type="move" name="top"/>
    </contour>
    <contour>
      <point x="462" y="0" type="move" name="bottom"/>
    </contour>
    <contour>
      <point x="128" y="41" type="line"/>
      <point x="122" y="0" type="line"/>
      <point x="919" y="0" type="line"/>
      <point x="924" y="41" type="line"/>
      <point x="703" y="82" type="line"/>
      <point x="784" y="659" type="line"/>
      <point x="703" y="494" type="line"/>
      <point x="1149" y="1220" type="line"/>
      <point x="1277" y="1253" type="line"/>
      <point x="1283" y="1292" type="line"/>
      <point x="923" y="1292" type="line"/>
      <point x="918" y="1253" type="line"/>
      <point x="1040" y="1220" type="line"/>
      <point x="771" y="740" type="line"/>
      <point x="661" y="530" type="line"/>
      <point x="742" y="609" type="line"/>
      <point x="680" y="795" type="line"/>
      <point x="523" y="1216" type="line"/>
      <point x="653" y="1253" type="line"/>
      <point x="659" y="1292" type="line"/>
      <point x="55" y="1292" type="line"/>
      <point x="50" y="1253" type="line"/>
      <point x="150" y="1220" type="line"/>
      <point x="439" y="471" type="line"/>
      <point x="423" y="715" type="line"/>
      <point x="333" y="82" type="line"/>
    </contour>
  </outline>
</glyph>
<glyph name="z.sc" format="1">
  <advance width="1144"/>
  <outline>
    <contour>
      <point x="670" y="1292" type="move" name="top"/>
    </contour>
    <contour>
      <point x="496" y="0" type="move" name="bottom"/>
    </contour>
    <contour>
      <point x="-13" y="24" type="line"/>
      <point x="-4" y="0" type="line"/>
      <point x="1013" y="0" type="line"/>
      <point x="1081" y="404" type="line"/>
      <point x="913" y="422" type="line"/>
      <point x="749" y="77" type="line"/>
      <point x="359" y="55" type="line"/>
      <point x="461" y="177" type="line"/>
      <point x="1187" y="1267" type="line"/>
      <point x="1176" y="1292" type="line"/>
      <point x="212" y="1292" type="line"/>
      <point x="157" y="914" type="line"/>
      <point x="327" y="915" type="line"/>
      <point x="445" y="1214" type="line"/>
      <point x="815" y="1236" type="line"/>
      <point x="715" y="1117" type="line"/>
    </contour>
  </outline>
</glyph>
